<svg xmlns="http://www.w3.org/2000/svg" xmlns:xlink="http://www.w3.org/1999/xlink" style="margin:auto;background:#000;display:block;z-index:1;position:relative;shape-rendering:auto" width="2038" height="1525" preserveAspectRatio="xMidYMid" viewBox="0 0 2038 1525"><g transform="translate(1019,762.5) scale(1,1) translate(-1019,-762.5)"><linearGradient id="lg-0.9406244638461736" x1="0" x2="1" y1="0" y2="0"><stop offset="0" stop-color="#e1640d"/><stop offset="1" stop-color="#fff"/></linearGradient><path fill="url(#lg-0.9406244638461736)" d="M 1538 763 C 1538 917 1298 1120 1151 1168 C 1004 1216 700 1186 609 1061 C 518 936 549 612 640 487 C 731 362 983 373 1130 421 C 1277 469 1538 609 1538 763" opacity=".56"><animate attributeName="d" begin="-4s" calcmod="spline" dur="10s" keySplines="0.3 0.1 0.7 0.9;0.3 0.1 0.7 0.9;0.3 0.1 0.7 0.9" keyTimes="0;0.3333333333333333;0.6666666666666666;1" repeatCount="indefinite" values="M 1538 763 C 1538 917 1298 1120 1151 1168 C 1004 1216 700 1186 609 1061 C 518 936 549 612 640 487 C 731 362 983 373 1130 421 C 1277 469 1538 609 1538 763;M 1641 763 C 1641 924 1290 1076 1137 1126 C 984 1176 726 1175 631 1045 C 536 915 541 614 636 484 C 731 354 1017 247 1170 297 C 1323 347 1641 602 1641 763;M 1710 763 C 1710 937 1335 1174 1170 1228 C 1005 1282 686 1219 584 1078 C 482 937 434 551 536 411 C 638 271 974 340 1139 394 C 1304 448 1710 589 1710 763;M 1538 763 C 1538 917 1298 1120 1151 1168 C 1004 1216 700 1186 609 1061 C 518 936 549 612 640 487 C 731 362 983 373 1130 421 C 1277 469 1538 609 1538 763"/></path><path fill="url(#lg-0.9406244638461736)" d="M 1627 763 C 1627 940 1328 1138 1159 1193 C 990 1248 676 1231 572 1088 C 468 945 479 588 583 445 C 687 302 1010 215 1179 270 C 1348 325 1627 586 1627 763" opacity=".56"><animate attributeName="d" begin="-4s" calcmod="spline" dur="10s" keySplines="0.3 0.1 0.7 0.9;0.3 0.1 0.7 0.9;0.3 0.1 0.7 0.9" keyTimes="0;0.3333333333333333;0.6666666666666666;1" repeatCount="indefinite" values="M 1627 763 C 1627 940 1328 1138 1159 1193 C 990 1248 676 1231 572 1088 C 468 945 479 588 583 445 C 687 302 1010 215 1179 270 C 1348 325 1627 586 1627 763;M 1707 763 C 1707 944 1340 1166 1168 1222 C 996 1278 670 1240 564 1093 C 458 946 454 575 561 429 C 668 283 986 277 1158 333 C 1330 389 1707 582 1707 763;M 1715 763 C 1715 947 1334 1136 1159 1193 C 984 1250 633 1271 525 1122 C 417 973 415 551 523 402 C 631 253 972 312 1147 369 C 1322 426 1715 579 1715 763;M 1627 763 C 1627 940 1328 1138 1159 1193 C 990 1248 676 1231 572 1088 C 468 945 479 588 583 445 C 687 302 1010 215 1179 270 C 1348 325 1627 586 1627 763"/></path><path fill="url(#lg-0.9406244638461736)" d="M 1622 763 C 1622 930 1304 1099 1145 1151 C 986 1203 646 1241 547 1106 C 448 971 441 550 539 414 C 637 278 990 310 1149 362 C 1308 414 1622 596 1622 763" opacity=".56"><animate attributeName="d" begin="-4s" calcmod="spline" dur="10s" keySplines="0.3 0.1 0.7 0.9;0.3 0.1 0.7 0.9;0.3 0.1 0.7 0.9" keyTimes="0;0.3333333333333333;0.6666666666666666;1" repeatCount="indefinite" values="M 1622 763 C 1622 930 1304 1099 1145 1151 C 986 1203 646 1241 547 1106 C 448 971 441 550 539 414 C 637 278 990 310 1149 362 C 1308 414 1622 596 1622 763;M 1741 763 C 1741 945 1353 1203 1180 1259 C 1007 1315 658 1250 551 1103 C 444 956 482 597 589 450 C 696 303 969 327 1142 383 C 1315 439 1741 581 1741 763;M 1562 763 C 1562 928 1321 1158 1164 1209 C 1007 1260 669 1221 572 1087 C 475 953 468 567 565 433 C 662 299 976 362 1133 413 C 1290 464 1562 598 1562 763;M 1622 763 C 1622 930 1304 1099 1145 1151 C 986 1203 646 1241 547 1106 C 448 971 441 550 539 414 C 637 278 990 310 1149 362 C 1308 414 1622 596 1622 763"/></path><path fill="url(#lg-0.9406244638461736)" d="M 1560 763 C 1560 917 1309 1160 1163 1207 C 1017 1254 680 1198 590 1074 C 500 950 498 573 588 449 C 678 325 987 365 1133 413 C 1279 461 1560 609 1560 763" opacity=".56"><animate attributeName="d" begin="-4s" calcmod="spline" dur="10s" keySplines="0.3 0.1 0.7 0.9;0.3 0.1 0.7 0.9;0.3 0.1 0.7 0.9" keyTimes="0;0.3333333333333333;0.6666666666666666;1" repeatCount="indefinite" values="M 1560 763 C 1560 917 1309 1160 1163 1207 C 1017 1254 680 1198 590 1074 C 500 950 498 573 588 449 C 678 325 987 365 1133 413 C 1279 461 1560 609 1560 763;M 1599 763 C 1599 917 1306 1145 1159 1193 C 1012 1241 726 1167 635 1042 C 544 917 482 563 573 438 C 664 313 1002 314 1149 361 C 1296 408 1599 609 1599 763;M 1544 763 C 1544 929 1331 1187 1173 1238 C 1015 1289 703 1196 606 1062 C 509 928 500 590 597 456 C 694 322 977 354 1135 405 C 1293 456 1544 597 1544 763;M 1560 763 C 1560 917 1309 1160 1163 1207 C 1017 1254 680 1198 590 1074 C 500 950 498 573 588 449 C 678 325 987 365 1133 413 C 1279 461 1560 609 1560 763"/></path><path fill="url(#lg-0.9406244638461736)" d="M 1673 763 C 1673 930 1313 1128 1154 1179 C 995 1230 632 1250 534 1115 C 436 980 490 585 588 450 C 686 315 1011 247 1170 299 C 1329 351 1673 596 1673 763" opacity=".56"><animate attributeName="d" begin="-4s" calcmod="spline" dur="10s" keySplines="0.3 0.1 0.7 0.9;0.3 0.1 0.7 0.9;0.3 0.1 0.7 0.9" keyTimes="0;0.3333333333333333;0.6666666666666666;1" repeatCount="indefinite" values="M 1673 763 C 1673 930 1313 1128 1154 1179 C 995 1230 632 1250 534 1115 C 436 980 490 585 588 450 C 686 315 1011 247 1170 299 C 1329 351 1673 596 1673 763;M 1647 763 C 1647 944 1332 1140 1160 1196 C 988 1252 659 1247 553 1101 C 447 955 386 526 492 380 C 598 234 983 287 1155 343 C 1327 399 1647 582 1647 763;M 1654 763 C 1654 925 1296 1092 1142 1142 C 988 1192 678 1210 583 1079 C 488 948 446 546 541 415 C 636 284 994 317 1148 367 C 1302 417 1654 601 1654 763;M 1673 763 C 1673 930 1313 1128 1154 1179 C 995 1230 632 1250 534 1115 C 436 980 490 585 588 450 C 686 315 1011 247 1170 299 C 1329 351 1673 596 1673 763"/></path></g></svg>